<?xml version="1.0"?>
<svg xmlns="http://www.w3.org/2000/svg" viewBox="0 0 64 64" width="512px" height="512px" class="hovered-paths"><g><g id="Outline"><g><path d="M32,29H30a1,1,0,0,0-1,1v8a1,1,0,0,0,2,0V35h1a3,3,0,0,0,0-6Zm0,4H31V31h1a1,1,0,0,1,0,2Z" data-original="#000000" class="hovered-path active-path" data-old_color="#000000" fill="#FFFFFF"/><path d="M21,32v4a3,3,0,0,0,6,0,1,1,0,0,0-2,0,1,1,0,0,1-2,0V32a1,1,0,0,1,2,0,1,1,0,0,0,2,0,3,3,0,0,0-6,0Z" data-original="#000000" class="hovered-path active-path" data-old_color="#000000" fill="#FFFFFF"/><path d="M43,36V30a1,1,0,0,0-2,0v6a1,1,0,0,1-2,0V30a1,1,0,0,0-2,0v6a3,3,0,0,0,6,0Z" data-original="#000000" class="hovered-path active-path" data-old_color="#000000" fill="#FFFFFF"/><path d="M5,25a3,3,0,0,0,0,6h6a1,1,0,0,0,1-1V18a6.006,6.006,0,0,1,6-6H46a6.006,6.006,0,0,1,6,6v4a1,1,0,0,0,2,0V19h5a1,1,0,0,1,0,2H57a1,1,0,0,0,0,2h2a3,3,0,0,0,0-6H53.931A8.008,8.008,0,0,0,47,10.069V5a3,3,0,0,0-6,0v5H39V5a3,3,0,0,0-6,0v5H31V5a3,3,0,0,0-6,0v5H23V5a3,3,0,0,0-6,0v5.069A8.008,8.008,0,0,0,10.069,17H5a3,3,0,0,0,0,6h5v2ZM43,5a1,1,0,0,1,2,0v5H43ZM35,5a1,1,0,0,1,2,0v5H35ZM27,5a1,1,0,0,1,2,0v5H27ZM20,4a1,1,0,0,1,1,1v5H19V5A1,1,0,0,1,20,4ZM4,28a1,1,0,0,1,1-1h5v2H5A1,1,0,0,1,4,28Zm1-7a1,1,0,0,1,0-2h5v2Z" data-original="#000000" class="hovered-path active-path" data-old_color="#000000" fill="#FFFFFF"/><path d="M59,31a3,3,0,0,0,0-6H53a1,1,0,0,0-1,1V46a6.006,6.006,0,0,1-6,6H18a6.006,6.006,0,0,1-6-6V34a1,1,0,0,0-2,0v3H5a1,1,0,0,1,0-2H7a1,1,0,0,0,0-2H5a3,3,0,0,0,0,6h5v2H5a3,3,0,0,0,0,6h5.069A8.008,8.008,0,0,0,17,53.931V59a3,3,0,0,0,6,0V54h2v5a3,3,0,0,0,6,0V57a1,1,0,0,0-2,0v2a1,1,0,0,1-2,0V54h6v5a3,3,0,0,0,6,0V54h2v5a3,3,0,0,0,6,0V53.931A8.008,8.008,0,0,0,53.931,47H59a3,3,0,0,0,0-6H54V39h5a3,3,0,0,0,0-6H54V31ZM4,44a1,1,0,0,1,1-1h5v2H5A1,1,0,0,1,4,44ZM21,59a1,1,0,0,1-2,0V54h2Zm16,0a1,1,0,0,1-2,0V54h2Zm8,0a1,1,0,0,1-2,0V54h2ZM60,28a1,1,0,0,1-1,1H54V27h5A1,1,0,0,1,60,28ZM59,43a1,1,0,0,1,0,2H54V43Zm0-8a1,1,0,0,1,0,2H54V35Z" data-original="#000000" class="hovered-path active-path" data-old_color="#000000" fill="#FFFFFF"/><path d="M25,43H39a1,1,0,0,0,0-2H25a1,1,0,0,0,0,2Z" data-original="#000000" class="hovered-path active-path" data-old_color="#000000" fill="#FFFFFF"/><path d="M41,24a1,1,0,0,0-1-1H34.816a2.982,2.982,0,0,0-5.632,0H24a1,1,0,0,0,0,2h5.184a2.982,2.982,0,0,0,5.632,0H40A1,1,0,0,0,41,24Zm-9,1a1,1,0,1,1,1-1A1,1,0,0,1,32,25Z" data-original="#000000" class="hovered-path active-path" data-old_color="#000000" fill="#FFFFFF"/><path d="M47,40a1,1,0,0,0,1-1V19a3,3,0,0,0-3-3H19a3,3,0,0,0-3,3V45a3,3,0,0,0,3,3H45a3,3,0,0,0,3-3V43a1,1,0,0,0-2,0v2a1,1,0,0,1-1,1H19a1,1,0,0,1-1-1V19a1,1,0,0,1,1-1H45a1,1,0,0,1,1,1V39A1,1,0,0,0,47,40Z" data-original="#000000" class="hovered-path active-path" data-old_color="#000000" fill="#FFFFFF"/></g></g></g> </svg>
