<?xml version="1.0"?>
<svg xmlns="http://www.w3.org/2000/svg" id="Capa_1" enable-background="new 0 0 512 512" height="512px" viewBox="0 0 512 512" width="512px" class=""><g><path d="m504.5 229.154c4.142 0 7.5-3.358 7.5-7.5v-56.569c0-4.142-3.358-7.5-7.5-7.5h-414.5c-4.142 0-7.5 3.358-7.5 7.5s3.358 7.5 7.5 7.5h407v42.464c-13.896 3.379-24.244 15.929-24.244 30.849s10.349 27.47 24.244 30.849v62.667h-13.285v-22.804c0-4.142-3.358-7.5-7.5-7.5h-270.723c-4.142 0-7.5 3.358-7.5 7.5v22.805h-13.284v-7.652c0-12.491-10.162-22.652-22.653-22.652s-22.652 10.162-22.652 22.652v7.652h-13.285v-22.805c0-4.142-3.358-7.5-7.5-7.5h-82.833c-4.142 0-7.5 3.358-7.5 7.5v22.805h-13.285v-62.667c13.896-3.379 24.244-15.928 24.244-30.849s-10.348-27.471-24.244-30.85v-42.464h39.969c4.142 0 7.5-3.358 7.5-7.5s-3.358-7.5-7.5-7.5h-47.469c-4.142 0-7.5 3.358-7.5 7.5v56.569c0 4.142 3.358 7.5 7.5 7.5 9.233 0 16.744 7.511 16.744 16.744 0 9.232-7.511 16.744-16.744 16.744-4.142 0-7.5 3.358-7.5 7.5v76.772c0 4.142 3.358 7.5 7.5 7.5h61.292c4.142 0 7.5-3.358 7.5-7.5s-3.358-7.5-7.5-7.5h-25.507v-15.304h67.833v15.305h-7.118c-4.142 0-7.5 3.358-7.5 7.5s3.358 7.5 7.5 7.5h42.902c4.142 0 7.5-3.358 7.5-7.5v-15.152c0-4.22 3.433-7.652 7.652-7.652s7.653 3.433 7.653 7.652v15.152c0 4.142 3.358 7.5 7.5 7.5h224.261c4.142 0 7.5-3.358 7.5-7.5s-3.358-7.5-7.5-7.5h-188.476v-15.305h255.724v15.305h-32.174c-4.142 0-7.5 3.358-7.5 7.5s3.358 7.5 7.5 7.5h67.958c4.142 0 7.5-3.358 7.5-7.5v-76.772c0-4.142-3.358-7.5-7.5-7.5-9.233 0-16.744-7.511-16.744-16.744s7.511-16.745 16.744-16.745z" data-original="#000000" class="active-path" data-old_color="#000000" fill="#FFFFFF"/><path d="m441.87 287.744c4.142 0 7.5-3.358 7.5-7.5v-80.813c0-4.142-3.358-7.5-7.5-7.5h-40.407c-4.142 0-7.5 3.358-7.5 7.5v80.813c0 4.142 3.358 7.5 7.5 7.5zm-32.907-80.813h25.407v65.813h-25.407z" data-original="#000000" class="active-path" data-old_color="#000000" fill="#FFFFFF"/><path d="m359.037 287.744c4.142 0 7.5-3.358 7.5-7.5v-80.813c0-4.142-3.358-7.5-7.5-7.5h-40.407c-4.142 0-7.5 3.358-7.5 7.5v80.813c0 4.142 3.358 7.5 7.5 7.5zm-32.907-80.813h25.407v65.813h-25.407z" data-original="#000000" class="active-path" data-old_color="#000000" fill="#FFFFFF"/><path d="m152.963 287.744h40.407c4.142 0 7.5-3.358 7.5-7.5v-80.813c0-4.142-3.358-7.5-7.5-7.5h-40.407c-4.142 0-7.5 3.358-7.5 7.5v80.813c0 4.142 3.358 7.5 7.5 7.5zm7.5-80.813h25.407v65.813h-25.407z" data-original="#000000" class="active-path" data-old_color="#000000" fill="#FFFFFF"/><path d="m70.13 287.744h40.407c4.142 0 7.5-3.358 7.5-7.5v-80.813c0-4.142-3.358-7.5-7.5-7.5h-40.407c-4.142 0-7.5 3.358-7.5 7.5v80.813c0 4.142 3.358 7.5 7.5 7.5zm7.5-80.813h25.407v65.813h-25.407z" data-original="#000000" class="active-path" data-old_color="#000000" fill="#FFFFFF"/><path d="m276.203 287.744c4.142 0 7.5-3.358 7.5-7.5v-80.813c0-4.142-3.358-7.5-7.5-7.5h-40.406c-4.142 0-7.5 3.358-7.5 7.5v80.813c0 4.142 3.358 7.5 7.5 7.5zm-32.906-80.813h25.406v65.813h-25.406z" data-original="#000000" class="active-path" data-old_color="#000000" fill="#FFFFFF"/></g> </svg>
